<?xml version="1.0" standalone="no"?>
<!DOCTYPE svg PUBLIC "-//W3C//DTD SVG 1.1//EN" "http://www.w3.org/Graphics/SVG/1.1/DTD/svg11.dtd">
<svg xmlns="http://www.w3.org/2000/svg">
<defs >
<font id="SplineSans" horiz-adv-x="1065" ><font-face
    font-family="Spline Sans SemiBold"
    units-per-em="2000"
    panose-1="0 0 0 0 0 0 0 0 0 0"
    ascent="1912"
    descent="-458"
    alphabetic="0" />
<glyph unicode=" " horiz-adv-x="348" />
<glyph unicode="!" horiz-adv-x="562" d="M195 456L158 1045L137 1480H425L404 1045L367 456H195ZM281 -15Q214 -15 167 32T119 155Q119 228 166 275T281 323Q348 323 395 276T443 155Q443 79 395 32T281 -15Z" />
<glyph unicode="&quot;" horiz-adv-x="963" d="M66 767L147 1522H415L285 767H66ZM533 767L614 1522H882L752 767H533Z" />
<glyph unicode="#" horiz-adv-x="1141" d="M525 20L835 1424H1031L721 20H525ZM30 353V512H1038V353H30ZM110 20L420 1424H616L306 20H110ZM83 902V1061H1111V902H83Z" />
<glyph unicode="$" horiz-adv-x="1194" d="M498 -163V35H725V-163H498ZM498 1419V1619H725V1419H498ZM613 8Q462 8 346 58T162 212T86 472H344Q351 395 386 344T481 266T624 240Q696 240 745 258T820 312T846 395Q846 445 817 481T722 550T545 623Q422 668 330
725T186 863T134 1061Q134 1191 193 1277T358 1407T605 1450Q756 1450 854 1403T1005 1263T1069 1033H812Q807 1094 783 1135T713 1197T600 1218Q508 1218 454 1180T400 1066Q400 1021 421 985T499 914T661 836Q753 801 835 768T981 690T1080 581T1117 414Q1118
282 1056 192T880 55T613 8Z" />
<glyph unicode="%" horiz-adv-x="1886" d="M462 0L1197 1454H1418L683 0H462ZM491 859Q561 859 604 913T648 1078Q648 1182 606 1238T487 1294Q418 1294 375 1238T332 1079Q332 972 375 916T491 859ZM488 688Q332 688 238 789T144 1084Q144 1205 189 1292T313
1426T491 1473Q651 1473 743 1369T836 1084Q836 955 790 867T665 733T488 688ZM1397 154Q1468 154 1511 208T1555 374Q1555 477 1513 533T1394 590Q1325 590 1282 534T1238 374Q1238 267 1282 211T1397 154ZM1394 -17Q1239 -17 1145 84T1050 379Q1050 500 1095
587T1220 721T1397 768Q1558 768 1650 664T1742 380Q1742 250 1696 162T1572 28T1394 -17Z" />
<glyph unicode="&amp;" horiz-adv-x="1439" d="M676 -19Q532 -19 423 15T240 109T129 242T92 396Q92 497 129 563T226 670T356 728T494 749L665 798Q749 829 788 883T839 997T851 1107Q851 1146 836 1180T786 1237T686 1259Q622 1259 584 1235T528 1175T510 1103Q510
1047 532 999T594 905T681 813L712 780L1088 372L1157 300L1427 -1H1114L1000 128L928 214L487 712L455 745Q408 791 359 844T275 964T241 1117Q241 1224 298 1305T457 1433T695 1479Q811 1479 906 1436T1060 1313T1119 1128Q1119 1042 1075 974T933 857T676 781L506
737Q447 719 415 677T370 580T358 464Q358 399 396 341T509 247T694 210Q773 210 824 223T910 257T973 298L1057 378Q1081 412 1093 458T1111 557T1116 668L1372 669Q1372 574 1349 485T1286 323T1195 209L1121 154Q1057 66 940 24T676 -19Z" />
<glyph unicode="&apos;" horiz-adv-x="496" d="M66 767L147 1522H415L285 767H66Z" />
<glyph unicode="(" horiz-adv-x="785" d="M391 -190Q245 -16 163 213T81 708Q81 971 163 1202T391 1606H640Q493 1421 410 1195T327 708Q327 440 412 217T640 -190H391Z" />
<glyph unicode=")" horiz-adv-x="785" d="M394 -190H145Q288 -6 372 217T457 708Q457 968 374 1194T145 1606H394Q539 1433 621 1202T704 708Q704 442 622 213T394 -190Z" />
<glyph unicode="*" d="M414 836L480 1121L255 923L150 1122L431 1211L153 1299L256 1498L484 1300L414 1586H651L586 1299L811 1497L915 1299L638 1211L915 1122L811 923L586 1121L653 836H414Z" />
<glyph unicode="+" horiz-adv-x="1142" d="M454 220V454Q454 494 471 523T523 557L454 622V762V1105H690V220H454ZM150 557V776H992V557H150Z" />
<glyph unicode="," horiz-adv-x="488" d="M65 -416Q80 -359 92 -279T111 -103T119 95V301H385L382 126Q381 7 361 -99T316 -288T269 -416H65Z" />
<glyph unicode="-" horiz-adv-x="804" d="M150 551V771H654L651 551H150Z" />
<glyph unicode="." horiz-adv-x="460" d="M230 -15Q162 -15 114 34T66 161Q66 237 114 285T230 334Q298 334 346 286T394 160Q394 83 346 34T230 -15Z" />
<glyph unicode="/" horiz-adv-x="750" d="M35 -100L477 1586H715L273 -100H35Z" />
<glyph unicode="0" horiz-adv-x="1212" d="M608 -25Q450 -25 331 52T146 298T79 736Q79 997 145 1161T331 1404T608 1483Q765 1483 883 1405T1067 1162T1134 736Q1134 466 1068 298T883 53T608 -25ZM608 229Q681 229 735 276T820 433T850 734Q850 918 820 1026T736
1181T608 1229Q534 1229 479 1182T394 1026T363 734Q363 544 393 434T479 276T608 229Z" />
<glyph unicode="1" horiz-adv-x="846" d="M379 0L381 1227L452 1454H667V0H379ZM81 1046V1314Q131 1314 181 1319T273 1336Q321 1350 367 1375T452 1454L389 1232Q374 1183 357 1144T290 1078Q253 1058 212 1052T81 1046Z" />
<glyph unicode="2" horiz-adv-x="1103" d="M22 0Q85 79 145 154T263 304T376 449T484 588Q570 700 630 777T723 919T755 1059Q755 1143 706 1196T554 1248Q484 1247 431 1217T353 1120T345 945H88Q65 1134 119 1253T287 1428T560 1484Q709 1484 811 1435T966 1297T1018
1084Q1018 970 983 881T894 714T780 559Q745 512 709 465T638 372T568 282T500 196Q533 232 580 240T713 249H1015V0H22Z" />
<glyph unicode="3" horiz-adv-x="1148" d="M559 -25Q450 -25 354 3T185 89T76 236T46 450H310Q305 335 371 276T562 217Q629 217 686 238T777 303T812 418Q812 534 740 585T560 637H408L409 865H553Q628 865 674 893T741 966T763 1061Q763 1156 705 1202T564 1248Q473
1248 416 1199T365 1033H96Q96 1183 147 1283T302 1433T565 1484Q796 1484 910 1375T1025 1089Q1025 1013 993 942T898 821T742 754Q896 743 988 655T1080 398Q1080 269 1017 174T837 27T559 -25Z" />
<glyph unicode="4" horiz-adv-x="1123" d="M650 0V264H-56L485 1454H907L902 1450L905 495H1092V264H906V0H650ZM297 459Q316 478 339 486T397 495H734Q681 495 666 532T650 625V949L657 1260L528 954L362 592L297 459Z" />
<glyph unicode="5" horiz-adv-x="1127" d="M555 -25Q398 -25 284 37T112 206T64 447H330Q333 385 359 336T437 260T568 232Q636 232 686 257T765 339T794 486Q794 615 736 670T574 726Q484 726 423 695T321 624L90 699L180 1454H998V1198H403L314 750Q332 807
361 842T431 901Q467 924 520 937T641 950Q722 950 800 927T940 851T1040 709T1078 488Q1078 337 1013 222T831 41T555 -25Z" />
<glyph unicode="6" horiz-adv-x="1141" d="M591 -25Q446 -25 330 45T147 251T80 582Q80 746 125 887T238 1142T377 1335T499 1454H876Q827 1415 761 1356T625 1223T495 1062T395 879T351 682L345 700Q358 741 382 790T445 882T545 954T688 983Q811 983 901 927T1042
762T1092 496Q1092 384 1054 289T948 124T788 14T591 -25ZM590 223Q662 223 712 259T790 358T817 493Q817 623 760 693T596 764Q540 764 496 751T419 715T360 663Q353 649 352 605T351 539Q351 482 365 426T407 324T481 251T590 223Z" />
<glyph unicode="7" horiz-adv-x="1063" d="M234 0L636 1071Q659 1131 699 1165T791 1211T898 1216L911 1205H60V1454H932H1033L534 0H234Z" />
<glyph unicode="8" horiz-adv-x="1216" d="M608 -25Q459 -25 341 23T154 164T86 392Q86 565 177 654T425 757Q334 770 270 819T173 937T140 1080Q140 1266 256 1375T608 1484Q845 1484 960 1374T1076 1080Q1076 1006 1043 937T947 818T793 755Q947 743 1038 653T1130
392Q1130 257 1062 164T875 23T608 -25ZM608 216Q714 216 789 266T865 419Q865 534 793 585T608 637Q496 637 424 587T351 419Q351 316 426 266T608 216ZM608 866Q677 866 723 894T791 966T814 1061Q814 1154 757 1201T608 1248Q515 1248 459 1201T402 1061Q402
1011 423 967T489 894T608 866Z" />
<glyph unicode="9" horiz-adv-x="1142" d="M269 0Q318 39 384 99T520 234T650 397T749 580T791 775L802 776Q788 730 766 679T706 582T611 508T465 479Q348 479 254 537T104 705T48 970Q48 1086 87 1179T197 1340T358 1443T552 1479Q696 1479 811 1411T994 1209T1062
872Q1062 708 1017 567T905 312T768 119T648 0H269ZM544 697Q600 697 644 710T721 747T780 806Q787 821 788 858T789 922Q789 1005 763 1075T685 1188T553 1231Q480 1231 429 1197T351 1105T324 973Q324 848 381 773T544 697Z" />
<glyph unicode=":" horiz-adv-x="546" d="M273 735Q205 735 157 784T109 911Q109 987 157 1035T273 1084Q341 1084 389 1036T437 910Q437 833 389 784T273 735ZM273 -15Q205 -15 157 34T109 161Q109 237 157 285T273 334Q341 334 389 286T437 160Q437 83 389 34T273 -15Z" />
<glyph unicode=";" horiz-adv-x="486" d="M256 735Q188 735 140 784T92 910Q92 987 140 1035T256 1084Q324 1084 372 1036T420 910Q420 833 372 784T256 735ZM65 -416Q80 -359 92 -279T111 -103T119 95V301H384L381 126Q380 7 361 -99T316 -288T269 -416H65Z" />
<glyph unicode="&lt;" horiz-adv-x="1062" d="M888 209L152 541V795L888 1127V893L508 730L357 670V666L508 606L888 442V209Z" />
<glyph unicode="=" horiz-adv-x="1156" d="M180 787V1001H976V787H180ZM180 340V554H976V340H180Z" />
<glyph unicode="&gt;" horiz-adv-x="1081" d="M195 209V442L575 606L726 666V670L575 730L195 893V1127L931 795V541L195 209Z" />
<glyph unicode="?" horiz-adv-x="1008" d="M362 440Q354 456 348 484T342 554Q342 643 378 699T468 795T574 870T664 953T700 1073Q700 1149 653 1190T509 1232Q394 1232 347 1169T306 980L56 981Q41 1114 80 1228T224 1412T505 1482Q671 1482 771 1423T916 1271T961
1077Q961 972 923 905T828 793T714 711T619 630T580 518Q580 502 581 480T588 440H362ZM490 -15Q423 -15 376 32T328 154Q328 228 375 275T490 323Q559 323 605 276T652 155Q652 79 605 32T490 -15Z" />
<glyph unicode="@" horiz-adv-x="1785" d="M895 -210Q662 -210 486 -107T210 183T111 622Q111 813 177 969T357 1237T618 1409T927 1470Q1153 1470 1321 1383T1581 1140T1674 779Q1674 595 1617 460T1460 252T1229 179Q1144 179 1091 244T1054 431Q1059 468 1062
489T1073 557H1066Q1050 502 1031 439T982 318T902 224T778 188Q699 188 637 235T538 369T501 576Q501 683 535 776T630 939T773 1048T949 1088Q1008 1088 1059 1076T1143 1042H1286Q1281 1002 1273 936T1256 795T1239 649T1226 528T1221 464Q1221 416 1233 392T1270
368Q1333 368 1382 419T1460 562T1489 769Q1489 1018 1344 1160T934 1302Q752 1302 609 1217T383 977T300 610Q300 405 372 259T579 36T899 -42Q1013 -42 1085 -26T1204 13T1282 55L1292 -116Q1231 -158 1134 -184T895 -210ZM831 395Q865 395 905 435T980 543T1039
690T1064 847Q1049 865 1021 877T942 890Q885 890 838 849T762 738T733 586Q733 519 746 477T781 415T831 395Z" />
<glyph unicode="A" horiz-adv-x="1355" d="M19 0L476 1454H880L1337 0H1040L908 455L1065 340H347L391 567H999L907 458L763 949L683 1260H670L591 949L315 0H19Z" />
<glyph unicode="B" horiz-adv-x="1244" d="M149 0V1454H647Q810 1454 914 1407T1069 1280T1120 1095Q1120 962 1044 882T841 790Q947 781 1020 741T1131 629T1170 450Q1170 303 1107 203T928 51T655 0H149ZM422 242H623Q755 242 816 286T877 450Q877 540 844 582T753
636T616 648H422V242ZM422 858H615Q694 858 741 880T810 946T832 1053Q833 1140 773 1177T611 1214H422V858Z" />
<glyph unicode="C" horiz-adv-x="1369" d="M750 -21Q551 -21 404 67T175 323T93 732Q93 963 172 1131T400 1390T755 1481Q904 1481 1028 1424T1227 1254T1305 974H1019Q1016 1063 977 1117T875 1195T737 1219Q634 1219 554 1165T426 1002T379 728Q379 553 427
446T557 290T741 241Q837 241 898 269T989 348T1021 462H1307Q1304 313 1234 205T1039 38T750 -21Z" />
<glyph unicode="D" horiz-adv-x="1355" d="M375 0V261H570Q709 261 807 309T958 463T1010 738Q1010 910 959 1011T809 1155T569 1199H367V1454H598Q815 1454 972 1375T1215 1138T1301 741Q1301 503 1212 338T966 87T604 0H375ZM149 0V1454H430V0H149Z" />
<glyph unicode="E" horiz-adv-x="1126" d="M149 0V1454H1037V1198H327L425 1288V810L327 875H975V621H351L425 690V167L327 258H1051V0H149Z" />
<glyph unicode="F" horiz-adv-x="1070" d="M149 0V1454H991L993 1198H272L427 1357V735L272 837H936V583H343L427 676V0H149Z" />
<glyph unicode="G" horiz-adv-x="1424" d="M766 -20Q565 -20 412 70T173 329T86 735Q86 969 170 1136T405 1392T753 1481Q893 1481 1013 1428T1212 1270T1302 1005H1027Q1020 1042 1000 1079T947 1148T865 1199T751 1218Q664 1218 594 1186T475 1092T399 939T372
731Q372 576 417 467T551 301T770 243Q822 243 875 252T974 278T1053 323V545H778V784H1318L1317 174Q1201 87 1066 34T766 -20Z" />
<glyph unicode="H" horiz-adv-x="1386" d="M957 0V1454H1237V0H957ZM149 0V1454H429V0H149ZM345 621V871H1003L1001 621H345Z" />
<glyph unicode="I" horiz-adv-x="567" d="M142 0V1454H426V0H142Z" />
<glyph unicode="J" horiz-adv-x="1069" d="M498 -30Q362 -30 258 16T93 168T29 448H304Q303 326 349 275T492 223Q553 223 592 241T650 312T669 462V1454H954V482Q954 307 904 194T753 25T498 -30Z" />
<glyph unicode="K" horiz-adv-x="1306" d="M408 382L376 637L553 932L923 1454H1260L760 778L657 698L408 382ZM149 0V1454H430V0H149ZM966 0L540 755L754 907L1297 0H966Z" />
<glyph unicode="L" horiz-adv-x="1039" d="M149 0V1454H430V98L271 261H992V0H149Z" />
<glyph unicode="M" horiz-adv-x="1758" d="M149 0V1454H605L808 687L877 412H882L953 687L1151 1454H1609V0H1334V781L1357 1209H1349L1222 789L979 0H785L536 789L409 1209H400L423 781V0H149Z" />
<glyph unicode="N" horiz-adv-x="1453" d="M149 0V1454H489L941 583L1062 278H1070L1030 628V1454H1304V0H962L513 868L397 1154H387L423 766V0H149Z" />
<glyph unicode="O" horiz-adv-x="1471" d="M734 -30Q554 -30 407 58T173 317T86 736Q86 976 169 1143T399 1396T735 1483Q921 1483 1067 1397T1299 1143T1385 736Q1385 488 1300 317T1069 58T734 -30ZM734 227Q840 227 922 281T1051 448T1099 733Q1099 898 1052
1007T923 1171T735 1226Q635 1226 553 1172T421 1008T372 733Q372 603 400 508T478 350T593 257T734 227Z" />
<glyph unicode="P" horiz-adv-x="1215" d="M533 489Q485 489 453 517T414 603L358 669L428 726H635Q720 726 776 752T861 835T889 979Q889 1117 820 1165T626 1214H422L336 1454Q378 1454 437 1454T551 1454T639 1454Q904 1454 1039 1344T1175 990Q1175 893 1148
803T1058 643T894 531T642 489H533ZM149 0V1454H428V0H149Z" />
<glyph unicode="Q" horiz-adv-x="1463" d="M730 -20Q550 -20 403 68T169 324T82 736Q82 976 165 1143T395 1396T731 1483Q916 1483 1063 1397T1295 1143T1381 736Q1381 493 1296 325T1064 68T730 -20ZM972 -316L801 49H1027Q1048 49 1076 36T1124 -12L1299 -316H972ZM730
241Q835 241 917 294T1046 457T1093 733Q1093 896 1046 1004T917 1167T731 1222Q632 1222 550 1168T418 1005T369 733Q369 608 397 516T475 362T590 271T730 241Z" />
<glyph unicode="R" horiz-adv-x="1259" d="M917 0L590 565H406L339 580L368 761V793H591Q670 793 718 819T787 894T808 1009Q808 1089 779 1130T703 1186T595 1201L424 1202L382 1288L338 1454Q380 1454 418 1454T505 1454T624 1454Q763 1454 869 1409T1034 1270T1094
1033Q1094 929 1055 836T934 679T722 602L737 618Q778 618 808 611T865 584T917 523L1251 0H917ZM149 0V1454H427V0H149Z" />
<glyph unicode="S" horiz-adv-x="1187" d="M609 -20Q446 -20 320 31T124 189T55 460H327Q329 382 361 329T458 248T619 221Q704 221 758 239T838 294T864 380Q864 435 831 472T727 542T542 614Q412 660 315 720T164 867T111 1075Q111 1272 243 1374T605 1477Q762
1477 864 1428T1019 1283T1086 1046H817Q812 1108 787 1150T716 1214T602 1236Q498 1236 442 1198T386 1082Q386 1031 408 993T489 919T662 840Q757 803 844 769T998 690T1104 577T1144 404Q1145 195 1004 88T609 -20Z" />
<glyph unicode="T" horiz-adv-x="1131" d="M426 0V1093Q426 1142 444 1166T499 1198H61V1454H1070V1198H707V0H426Z" />
<glyph unicode="U" horiz-adv-x="1355" d="M681 -20Q514 -20 389 46T196 243T127 561V1456H411V582Q411 489 429 423T482 314T568 253T682 233Q743 233 791 252T874 314T926 422T945 582V1454H1229V561Q1229 375 1160 245T968 48T681 -20Z" />
<glyph unicode="V" horiz-adv-x="1280" d="M454 0L28 1454H339L538 672L635 248H646L741 672L941 1454H1252L826 0H454Z" />
<glyph unicode="W" horiz-adv-x="1937" d="M392 0L25 1454H327L477 705L560 227H568L646 705L785 1454H1140L1281 705L1358 227H1366L1454 705L1609 1454H1912L1533 0H1176L1022 772L966 1143H960L904 772L751 0H392Z" />
<glyph unicode="X" horiz-adv-x="1285" d="M15 0L456 724L20 1454H352L503 1160L645 896L783 1158L930 1454H1265L832 724L1270 0H935L777 298L641 560L509 296L348 0H15Z" />
<glyph unicode="Y" horiz-adv-x="1291" d="M508 459L9 1454H330L509 1041L637 747H652L782 1040L961 1454H1282L784 459H508ZM504 0V623H787V0H504Z" />
<glyph unicode="Z" horiz-adv-x="1203" d="M50 0L648 1094L747 1215L621 1207H126V1454H1153L559 351L473 236L644 243H1121V0H50Z" />
<glyph unicode="[" horiz-adv-x="703" d="M92 -181V1596H584V1382H227L329 1509V-94L227 33H584V-181H92Z" />
<glyph unicode="\" horiz-adv-x="750" d="M715 -100H477L35 1586H273L715 -100Z" />
<glyph unicode="]" horiz-adv-x="703" d="M611 -181H118V33H476L374 -94V1509L476 1382H118V1596H611V-181Z" />
<glyph unicode="^" horiz-adv-x="1099" d="M85 597L395 1454H699L1014 597H736L591 1062L551 1227H543L503 1061L362 597H85Z" />
<glyph unicode="_" horiz-adv-x="776" d="M-2 -246V-21H778V-246H-2Z" />
<glyph unicode="`" horiz-adv-x="783" d="M389 1259L150 1559H442L633 1259H389Z" />
<glyph unicode="a" horiz-adv-x="1123" d="M412 -12Q316 -12 240 24T120 128T76 289Q76 387 114 450T220 551T377 607Q439 620 505 628T630 642T724 650V687Q724 794 685 842T551 891Q490 891 449 875T386 817T365 696H107Q96 839 150 931T311 1067T562 1112Q647
1112 724 1094T862 1031T958 909T994 714V0H722L724 250Q706 140 632 64T412 -12ZM496 181Q547 181 595 199T679 251T724 327V512Q684 506 637 498T555 482Q449 460 407 422T364 314Q364 273 380 243T427 197T496 181Z" />
<glyph unicode="b" horiz-adv-x="1203" d="M698 -13Q605 -13 543 19T447 98T403 193L362 275L416 318Q425 286 449 261T514 221T613 206Q718 206 781 287T845 548Q845 714 785 797T621 881Q560 881 516 864T447 824T416 778L402 789L417 842Q429 924 465 985T564
1079T718 1112Q848 1112 938 1043T1075 849T1123 559Q1123 419 1090 313T999 134T863 24T698 -13ZM142 0V1556H417V1037V282L432 235L410 178L398 0H142Z" />
<glyph unicode="c" horiz-adv-x="1086" d="M591 -19Q424 -19 308 52T133 252T73 550Q73 726 134 852T310 1045T579 1112Q732 1112 834 1058T985 911T1029 702H764Q762 747 750 782T715 840T658 876T579 888Q458 889 404 803T349 555Q349 375 412 293T601 207Q639
206 678 223T744 278T768 371H1032Q1035 253 979 165T823 29T591 -19Z" />
<glyph unicode="d" horiz-adv-x="1208" d="M497 -13Q363 -13 270 58T128 257T80 551Q80 732 138 857T294 1047T512 1112Q606 1112 667 1081T761 1001T804 906L856 848L791 770Q782 802 759 827T696 868T597 883Q488 883 423 802T358 546Q358 384 419 299T587 213Q648
213 691 232T760 278T791 326L803 303L791 251Q782 205 762 158T708 73T623 11T497 -13ZM792 0L791 1556H1066V0H792Z" />
<glyph unicode="e" horiz-adv-x="1115" d="M583 -15Q421 -15 305 50T127 241T65 547Q65 729 130 855T313 1047T587 1113Q739 1113 844 1055T1005 882T1060 601Q1060 574 1059 550T1055 493H337Q347 343 410 273T576 203Q666 203 713 242T772 337H1037Q1028 228
970 149T813 27T583 -15ZM455 662H791Q787 774 737 832T576 890Q455 890 398 807T335 572Q343 624 372 643T455 662Z" />
<glyph unicode="f" horiz-adv-x="761" d="M212 0V768Q212 810 227 834T272 867L212 1047V1221Q212 1349 263 1434T399 1561T588 1603Q649 1603 684 1600T751 1591L750 1345Q728 1353 696 1358T619 1363Q577 1363 547 1349T502 1297T486 1191V0H212ZM64 867V1092H709V867H64Z"
/>
<glyph unicode="g" horiz-adv-x="1186" d="M592 -447Q444 -449 334 -402T167 -264T123 -47H390Q390 -98 405 -138T465 -201T596 -225Q674 -225 715 -204T773 -137T789 -23V279Q777 211 743 157T648 71T492 40Q394 40 318 82T188 196T108 363T80 560Q80 740 137
862T290 1048T502 1112Q588 1112 646 1088T739 1025T792 946L798 1091H1062V-6Q1062 -153 1006 -250T844 -396T592 -447ZM585 264Q647 264 689 279T755 318T789 364V779Q779 807 754 830T688 868T591 883Q486 883 423 806T360 567Q360 423 420 344T585 264Z" />
<glyph unicode="h" horiz-adv-x="1195" d="M142 0V1559H413V1091L396 780L406 692L394 763Q406 853 442 933T549 1064T737 1114Q889 1114 976 1018T1064 723V0H787V623Q787 761 750 820T620 879Q555 879 502 836T418 732V0H142Z" />
<glyph unicode="i" horiz-adv-x="560" d="M141 0V1092H417L416 0H141ZM280 1234Q208 1234 158 1284T108 1412Q108 1490 158 1539T280 1589Q351 1589 401 1540T452 1412Q452 1334 402 1284T280 1234Z" />
<glyph unicode="j" horiz-adv-x="579" d="M184 -453Q122 -453 81 -445T0 -425V-183Q15 -189 40 -195T91 -201Q120 -201 142 -179T164 -97V1092H438L435 -45Q435 -69 435 -93T436 -140Q436 -230 412 -300T333 -412T184 -453ZM300 1234Q228 1234 178 1284T127 1412Q127
1490 177 1539T300 1589Q371 1589 421 1540T472 1412Q472 1334 422 1284T300 1234Z" />
<glyph unicode="k" horiz-adv-x="1117" d="M784 0L392 595L640 630L747 508L1129 0H784ZM142 0V1559H413V758L396 598V590L413 424V0H142ZM640 562L392 595L562 838L742 1091H1093L744 683L640 562Z" />
<glyph unicode="l" horiz-adv-x="564" d="M144 0V1559H421V0H144Z" />
<glyph unicode="m" horiz-adv-x="1809" d="M141 0V1092H384L410 680L396 763Q408 853 441 933T543 1064T728 1114Q858 1114 941 1038T1044 802L1048 766V0H771V623Q771 722 754 777T702 856T617 879Q548 879 496 837T418 740V0H141ZM1400 0V623Q1400 722 1383
777T1331 856T1246 879Q1177 879 1126 837T1048 740L1044 680L1033 751Q1043 838 1075 921T1174 1059T1357 1114Q1504 1114 1590 1018T1677 723V0H1400Z" />
<glyph unicode="n" horiz-adv-x="1194" d="M141 0V1092H384L410 680L396 763Q408 853 443 933T548 1064T735 1114Q887 1114 975 1018T1063 723V0H787V623Q787 722 769 777T714 856T621 879Q553 879 499 837T418 740V0H141Z" />
<glyph unicode="o" horiz-adv-x="1172" d="M584 -15Q429 -15 314 50T136 241T73 552Q73 726 139 852T323 1045T588 1113Q748 1113 862 1046T1038 852T1099 552Q1099 368 1031 242T847 50T584 -15ZM588 216Q690 216 756 292T823 552Q823 723 756 802T584 882Q482
882 416 803T350 552Q350 376 418 296T588 216Z" />
<glyph unicode="p" horiz-adv-x="1204" d="M699 -13Q606 -13 544 19T448 98T404 193L301 191L417 318Q425 286 449 261T514 221T613 206Q719 206 782 287T845 550Q845 713 785 797T621 881Q560 881 517 864T448 824T417 778V856Q425 903 445 948T500 1031T590
1090T719 1112Q848 1112 938 1042T1075 848T1123 559Q1123 419 1090 313T999 134T864 24T699 -13ZM142 -403V1091H412L417 929V275L404 193L417 -1V-403H142Z" />
<glyph unicode="q" horiz-adv-x="1210" d="M497 -13Q363 -13 270 58T128 254T80 541Q80 727 138 854T294 1046T511 1112Q606 1112 667 1081T761 1001T804 906L897 911L793 772Q783 803 759 828T695 868T596 883Q488 883 423 802T358 546Q358 384 419 299T585 213Q648
213 692 231T761 275T793 320L808 267L793 238Q783 193 763 149T709 68T622 9T497 -13ZM793 -403V871L802 1091H1068V-403H793Z" />
<glyph unicode="r" horiz-adv-x="806" d="M141 0V1092H384L410 667L390 729Q399 806 420 875T479 998T572 1083T703 1114Q723 1114 743 1112T780 1105V815Q746 825 712 828T645 832Q598 832 553 820T473 782T418 718V0H141Z" />
<glyph unicode="s" horiz-adv-x="1033" d="M518 -17Q385 -17 286 22T131 140T68 344H336Q347 262 395 226T519 189Q565 189 604 199T666 233T690 299Q690 331 675 351T631 386T558 414T459 443Q360 472 277 512T144 620T94 795Q94 950 208 1030T505 1111Q617 1111
707 1080T855 973T930 762L664 763Q652 825 627 856T569 899T500 910Q460 910 429 898T380 861T363 803Q363 761 387 733T462 685T589 641Q645 626 709 606T830 553T923 463T960 316Q960 159 840 71T518 -17Z" />
<glyph unicode="t" horiz-adv-x="788" d="M477 -14Q344 -14 270 53T196 255L194 774Q194 809 212 834T263 867L194 1048V1079L249 1404H468V334Q468 270 489 245T570 220Q617 220 653 221T719 225V1Q676 -11 609 -12T477 -14ZM65 867V1092H716V867H65Z" />
<glyph unicode="u" horiz-adv-x="1183" d="M444 -22Q299 -22 215 76T131 368V1092H408V453Q408 362 425 310T476 235T562 213Q630 213 685 255T766 352V1092H1042V0H801L774 412L788 329Q776 239 741 159T634 29T444 -22Z" />
<glyph unicode="v" horiz-adv-x="1102" d="M404 0L30 1091H334L477 544L547 265H556L626 543L769 1091H1072L700 0H404Z" />
<glyph unicode="w" horiz-adv-x="1693" d="M339 0L19 1091H313L429 560L492 226H504L556 560L674 1091H1019L1136 559L1188 219L1200 220L1264 559L1380 1091H1674L1355 0H1029L909 502L854 818H840L783 501L664 0H339Z" />
<glyph unicode="x" horiz-adv-x="1067" d="M24 0L409 639L412 437L35 1091H352L480 826L544 679L595 824L718 1091H1033L655 437L656 640L1043 0H718L587 260L521 399L469 257L344 0H24Z" />
<glyph unicode="y" horiz-adv-x="1069" d="M134 -431V-187H237Q309 -187 348 -175T406 -140T435 -83Q447 -45 459 -27T491 0H390L30 1091H332L468 548L541 266H550L618 547L750 1091H1050L701 0Q669 -100 631 -180T540 -316T413 -401T237 -431H134Z" />
<glyph unicode="z" horiz-adv-x="968" d="M21 0L473 767Q504 819 540 852T622 904L651 892Q591 885 526 876T409 867H95V1091H939L498 339Q459 272 410 233T305 168L300 206Q358 211 422 218T532 226H911V0H21Z" />
<glyph unicode="{" horiz-adv-x="877" d="M520 -180Q384 -180 323 -114T261 102V463Q261 540 221 570T67 608V808Q180 816 220 846T261 953V1314Q261 1463 322 1529T520 1596H758V1382H592Q542 1382 521 1355T500 1262V874Q500 811 475 777T391 731L280 708L391
685Q449 673 474 640T500 542V154Q500 88 521 61T592 34H758V-180H520Z" />
<glyph unicode="|" horiz-adv-x="675" d="M219 -160V1554H457V-160H219Z" />
<glyph unicode="}" horiz-adv-x="877" d="M356 -180H118V34H285Q335 34 355 61T376 154V542Q376 606 402 639T486 685L596 708L486 731Q429 743 403 777T376 874V1262Q376 1328 356 1355T285 1382H118V1596H356Q493 1596 554 1530T616 1314V953Q616 877 657 847T810
808V608Q698 601 657 571T616 463V102Q616 -47 555 -113T356 -180Z" />
<glyph unicode="~" horiz-adv-x="1254" d="M808 486Q729 486 681 518T601 593T536 667T455 700Q411 700 389 676T362 605T366 488H158Q141 606 159 687T221 819T322 893T441 916Q511 916 557 894T634 840T689 776T738 723T799 701Q871 701 886 756T883 912H1093Q1115
793 1097 712T1033 581T929 509T808 486Z" />
<glyph unicode="&#xa0;" horiz-adv-x="348" />
<glyph unicode="&#xa1;" horiz-adv-x="562" d="M137 -15L158 420L195 1009H367L404 420L425 -15H137ZM281 1142Q214 1142 167 1189T119 1311Q119 1386 166 1433T281 1480Q348 1480 395 1433T443 1311Q443 1238 395 1190T281 1142Z" />
<glyph unicode="&#xa2;" horiz-adv-x="1057" d="M575 1Q407 1 292 73T118 269T59 550Q59 716 119 837T291 1025T559 1092Q707 1092 808 1038T959 892T1004 687H747Q746 730 734 764T699 821T642 856T563 868Q442 869 389 785T336 555Q336 394 397 312T584 227Q613
226 643 235T698 265T738 317T752 391H1006Q1009 273 954 185T800 49T575 1ZM441 -187V42H659V-187H441ZM441 1044V1264H659V1044H441Z" />
<glyph unicode="&#xa3;" horiz-adv-x="1185" d="M66 0V245Q160 284 216 339T298 453T324 564Q324 641 299 695T240 800T182 911T156 1063Q156 1191 211 1285T374 1432T635 1484Q783 1484 882 1429T1033 1273T1084 1037Q1084 1018 1084 998T1081 957H799Q801 986
802 1007T803 1047Q803 1110 786 1152T729 1215T621 1237Q563 1237 522 1217T459 1155T437 1049Q437 983 453 933T490 837T528 736T544 604Q544 524 509 458T438 354Q394 310 322 280T185 245L66 0ZM66 0V245H1075V0H66ZM145 552V741H894V552H145Z" />
<glyph unicode="&#xa4;" horiz-adv-x="1302" d="M650 309Q527 309 427 368T269 528T210 752Q210 879 268 978T425 1135T650 1192Q775 1192 875 1134T1033 976T1091 752Q1091 625 1034 525T878 367T650 309ZM315 210L150 375L419 643L584 479L315 210ZM987 210L718
479L883 643L1152 375L987 210ZM650 536Q732 536 791 596T851 752Q851 848 790 907T650 966Q565 966 508 908T450 752Q450 657 509 597T650 536ZM419 849L150 1117L315 1282L584 1013L419 849ZM883 849L718 1013L987 1282L1152 1117L883 849Z" />
<glyph unicode="&#xa5;" horiz-adv-x="1272" d="M479 597L11 1454H335L505 1083L627 813H643L765 1083L935 1454H1259L789 597H479ZM495 0V717H777V0H495ZM146 591V798H1125V591H146ZM146 185V391H1125V185H146Z" />
<glyph unicode="&#xa6;" horiz-adv-x="675" d="M219 835V1568H457V835H219ZM219 -174V553H457V-174H219Z" />
<glyph unicode="&#xa7;" horiz-adv-x="1014" d="M509 -17Q369 -17 267 22T108 142T44 344H320Q328 273 374 231T510 189Q563 189 606 199T674 233T700 299Q700 331 683 351T634 384T557 411T457 443Q379 470 313 497T199 557T124 636T97 743Q97 850 182 911T448
973L474 962Q441 963 411 944T361 891T342 812Q342 771 371 740T456 686T587 641Q645 626 710 605T834 548T929 457T967 315Q967 210 911 136T752 22T509 -17ZM570 628L539 647Q614 647 660 686T706 792Q706 840 677 865T595 908T466 946Q365 975 283 1019T153
1131T104 1298Q104 1401 157 1471T302 1578T512 1614Q624 1614 714 1582T862 1474T932 1265L665 1267Q656 1304 639 1338T590 1393T508 1414Q439 1414 402 1386T365 1306Q365 1265 390 1237T468 1188T596 1144Q665 1125 729 1102T845 1049T926 974T956 867Q956
778 901 726T758 651T570 628Z" />
<glyph unicode="&#xa8;" horiz-adv-x="1033" d="M307 1248Q245 1248 198 1296T150 1418Q150 1492 197 1539T307 1586Q369 1586 416 1539T464 1418Q464 1344 417 1296T307 1248ZM726 1248Q664 1248 617 1296T569 1418Q569 1492 616 1539T726 1586Q789 1586 836
1539T883 1418Q883 1344 836 1296T726 1248Z" />
<glyph unicode="&#xa9;" horiz-adv-x="1314" d="M657 266Q484 266 355 336T154 541T82 869Q82 1060 154 1192T356 1394T659 1464Q832 1464 961 1395T1161 1193T1232 869Q1232 676 1161 541T960 336T657 266ZM664 505Q500 505 418 602T336 870Q336 1037 418 1129T662
1221Q819 1221 895 1146T967 955H761Q761 1006 737 1030T662 1055Q597 1055 569 1013T540 873Q540 769 569 725T663 681Q708 681 738 700T766 778H972Q972 651 891 578T664 505ZM658 362Q796 362 901 416T1065 583T1125 866Q1125 1035 1066 1146T901 1312T659 1368Q520
1368 414 1313T249 1147T189 866Q189 694 251 582T419 416T658 362Z" />
<glyph unicode="&#xaa;" horiz-adv-x="933" d="M341 583Q220 583 139 645T57 827Q57 948 130 1005T317 1083Q367 1092 420 1098T521 1109T602 1115V1137Q602 1218 572 1251T465 1285Q419 1285 386 1273T337 1232T320 1145H82Q72 1262 120 1336T260 1447T474 1483Q572
1483 657 1456T797 1359T851 1163V593H600L602 797Q587 710 526 647T341 583ZM422 751Q462 751 500 765T566 804T602 862V999Q573 994 536 988T467 976Q385 959 352 929T318 848Q318 802 346 777T422 751Z" />
<glyph unicode="&#xab;" horiz-adv-x="1267" d="M852 191L630 549V557L852 915H1117L959 668Q923 611 892 589T792 553Q862 540 893 518T959 440L1117 191H852ZM394 190L150 549V557L394 916H652L491 668Q454 611 421 589T315 553Q388 540 421 518T491 439L652 190H394Z" />
<glyph unicode="&#xac;" horiz-adv-x="1149" d="M783 258V605H150V814H999V258H783Z" />
<glyph unicode="&#xad;" horiz-adv-x="804" d="M150 551V771H654L651 551H150Z" />
<glyph unicode="&#xae;" horiz-adv-x="1314" d="M394 524V1206H586L584 524H394ZM762 524L659 761H578L546 767L559 884V897H658Q706 897 733 915T761 984Q761 1037 734 1049T671 1062H578L527 1122L546 1206Q562 1206 578 1206T620 1206T695 1206Q817 1206 884
1154T952 995Q953 938 929 890T855 812T729 780L678 798Q771 798 812 789T871 745L986 524H762ZM657 266Q484 266 355 336T154 541T82 869Q82 1060 154 1192T356 1394T659 1464Q832 1464 961 1395T1161 1193T1232 869Q1232 676 1161 541T960 336T657 266ZM658 362Q796
362 901 416T1065 583T1125 866Q1125 1035 1066 1146T901 1312T659 1368Q520 1368 414 1313T249 1147T189 866Q189 694 251 582T419 416T658 362Z" />
<glyph unicode="&#xaf;" horiz-adv-x="764" d="M121 1259V1468H643L640 1259H121Z" />
<glyph unicode="&#xb0;" horiz-adv-x="908" d="M454 882Q369 882 300 921T191 1029T150 1182Q150 1271 190 1338T298 1444T453 1483Q540 1483 609 1444T718 1337T758 1183Q758 1095 719 1027T611 921T454 882ZM454 1039Q511 1039 551 1078T591 1182Q591 1248 551
1286T454 1325Q396 1325 357 1287T317 1182Q317 1118 357 1079T454 1039Z" />
<glyph unicode="&#xb1;" horiz-adv-x="1142" d="M171 0V214H967V0H171ZM454 317V551Q454 591 471 620T523 654L454 719V859V1202H690V317H454ZM150 654V873H992V654H150Z" />
<glyph unicode="&#xb2;" horiz-adv-x="815" d="M34 910Q52 932 92 981T181 1092T277 1211T352 1307Q420 1393 460 1443T517 1525T534 1591Q534 1628 510 1661T412 1694Q346 1694 310 1647T297 1512H82Q63 1646 102 1729T223 1850T414 1889Q584 1889 667 1813T751
1622Q751 1548 726 1487T665 1374T592 1279Q557 1236 530 1204T478 1142T426 1079Q450 1100 478 1108T557 1116H748V910H34Z" />
<glyph unicode="&#xb3;" horiz-adv-x="841" d="M404 897Q296 897 210 933T77 1040T35 1214H252Q249 1147 296 1122T410 1097Q464 1097 509 1122T555 1204Q555 1260 512 1286T411 1313H305V1496H401Q471 1496 497 1527T524 1592Q524 1647 489 1670T410 1694Q353
1694 321 1669T291 1589H69Q71 1730 152 1809T411 1889Q578 1889 661 1817T745 1626Q745 1549 692 1486T552 1407Q651 1401 717 1343T784 1174Q784 1058 687 978T404 897Z" />
<glyph unicode="&#xb4;" horiz-adv-x="783" d="M150 1259L340 1558H633L395 1259H150Z" />
<glyph unicode="&#xb5;" horiz-adv-x="1198" d="M601 -15Q548 -15 514 3T459 52T427 120T406 194L131 368V1092H407V448Q407 388 419 346T454 277T514 238T599 225Q641 225 679 252T745 320T781 403V1092H1056V0H816L789 337L803 292Q792 132 745 59T601 -15ZM131
-264V368L407 399L406 -264H131Z" />
<glyph unicode="&#xb6;" horiz-adv-x="1348" d="M552 0V618Q548 601 529 588T475 574H436Q311 574 223 632T87 798T40 1048Q40 1242 156 1348T475 1454H591H794V0H552ZM959 0V1454H1199V0H959Z" />
<glyph unicode="&#xb7;" horiz-adv-x="428" d="M214 606Q146 606 98 655T50 782Q50 858 98 906T214 955Q283 955 330 907T378 782Q378 704 330 655T214 606Z" />
<glyph unicode="&#xb8;" horiz-adv-x="569" d="M280 -412Q231 -412 189 -402T106 -375L107 -219Q159 -245 209 -245Q255 -245 273 -225T292 -162Q292 -116 268 -78T181 0H263Q398 -35 453 -91T509 -220Q509 -309 445 -360T280 -412Z" />
<glyph unicode="&#xb9;" horiz-adv-x="598" d="M257 910L259 1672L318 1870H496V910H257ZM52 1547V1768Q84 1768 124 1772T201 1787Q235 1796 266 1816T318 1870L261 1672Q255 1645 246 1617T198 1568Q173 1555 144 1551T52 1547Z" />
<glyph unicode="&#xba;" horiz-adv-x="959" d="M477 581Q277 581 161 697T44 1035Q44 1174 100 1274T254 1429T481 1483Q687 1483 800 1364T914 1035Q914 888 858 787T703 633T477 581ZM481 790Q558 790 609 843T660 1035Q660 1164 610 1219T478 1274Q401 1274
350 1219T298 1035Q298 902 349 846T481 790Z" />
<glyph unicode="&#xbb;" horiz-adv-x="1267" d="M414 191H150L308 440Q342 495 374 517T475 553Q407 566 375 588T308 668L150 915H414L637 557V549L414 191ZM873 190H614L776 439Q813 496 846 518T952 553Q880 567 847 589T776 668L614 916H873L1117 557V549L873 190Z" />
<glyph unicode="&#xbc;" horiz-adv-x="2012" d="M257 467L259 1228L318 1427H496V467H257ZM52 1104V1325Q84 1325 124 1329T201 1344Q235 1353 266 1373T318 1427L261 1229Q255 1202 246 1174T198 1124Q173 1111 144 1108T52 1104ZM468 0L1255 1454H1478L692 0H468ZM1646
0L1647 166H1142L1486 960H1858L1855 957L1854 351H1983V166H1855V0H1646ZM1424 321Q1438 340 1455 345T1500 351H1711Q1672 351 1660 375T1647 447V597L1649 832L1548 583L1471 434L1424 321Z" />
<glyph unicode="&#xbd;" horiz-adv-x="1977" d="M257 467L259 1228L318 1427H496V467H257ZM52 1104V1325Q84 1325 124 1329T201 1344Q235 1353 266 1373T318 1427L261 1229Q255 1202 246 1174T198 1124Q173 1111 144 1108T52 1104ZM432 0L1219 1454H1442L656 0H432ZM1196
0Q1214 22 1254 71T1343 182T1439 301T1514 397Q1582 483 1622 533T1679 615T1696 681Q1696 718 1672 751T1574 784Q1508 784 1472 737T1459 602H1244Q1225 736 1264 819T1385 940T1576 979Q1746 979 1829 903T1913 712Q1913 638 1888 577T1827 464T1754 369Q1719
326 1692 294T1640 232T1588 169Q1612 190 1640 198T1719 206H1910V0H1196Z" />
<glyph unicode="&#xbe;" horiz-adv-x="2172" d="M404 454Q296 454 210 490T77 597T35 771H252Q249 704 296 679T410 654Q464 654 509 679T555 761Q555 817 512 843T411 870H305V1053H401Q471 1053 497 1084T524 1149Q524 1204 489 1227T410 1251Q353 1251 321
1226T291 1146H69Q71 1287 152 1366T411 1446Q578 1446 661 1374T745 1183Q745 1106 692 1043T552 964Q651 958 717 900T784 730Q784 615 687 535T404 454ZM613 0L1400 1454H1623L837 0H613ZM1806 0L1807 166H1302L1646 960H2018L2015 957L2014 351H2143V166H2015V0H1806ZM1584
321Q1598 340 1615 345T1660 351H1871Q1832 351 1820 375T1807 447V597L1809 832L1708 583L1631 434L1584 321Z" />
<glyph unicode="&#xbf;" horiz-adv-x="1008" d="M646 1027Q654 1011 660 983T666 913Q666 824 630 768T540 672T434 597T344 514T308 394Q308 319 355 277T499 235Q614 235 661 298T702 487L952 486Q968 354 928 240T784 55T503 -15Q337 -15 237 44T92 196T47
390Q47 495 85 562T180 674T294 756T389 837T428 949Q428 965 427 988T420 1027H646ZM518 1482Q585 1482 632 1435T680 1313Q680 1239 633 1192T518 1144Q449 1144 403 1191T356 1312Q356 1388 403 1435T518 1482Z" />
<glyph unicode="&#xc0;" horiz-adv-x="1355" d="M19 0L476 1454H880L1337 0H1040L908 455L1065 340H347L391 567H999L907 458L763 949L683 1260H670L591 949L315 0H19ZM568 1618L330 1916H622L813 1618H568Z" />
<glyph unicode="&#xc1;" horiz-adv-x="1355" d="M19 0L476 1454H880L1337 0H1040L908 455L1065 340H347L391 567H999L907 458L763 949L683 1260H670L591 949L315 0H19ZM558 1618L748 1916H1041L803 1618H558Z" />
<glyph unicode="&#xc2;" horiz-adv-x="1355" d="M19 0L476 1454H880L1337 0H1040L908 455L1065 340H347L391 567H999L907 458L763 949L683 1260H670L591 949L315 0H19ZM342 1618L567 1917H787L1012 1618H804L677 1748L550 1618H342Z" />
<glyph unicode="&#xc3;" horiz-adv-x="1355" d="M19 0L476 1454H880L1337 0H1040L908 455L1065 340H347L391 567H999L907 458L763 949L683 1260H670L591 949L315 0H19ZM814 1593Q748 1593 710 1616T649 1669T606 1721T555 1744Q515 1744 495 1713T474 1611H298Q295
1725 327 1795T416 1898T539 1931Q603 1931 640 1909T700 1857T743 1804T793 1781Q833 1781 854 1811T877 1913H1052Q1057 1760 992 1677T814 1593Z" />
<glyph unicode="&#xc4;" horiz-adv-x="1355" d="M19 0L476 1454H880L1337 0H1040L908 455L1065 340H347L391 567H999L907 458L763 949L683 1260H670L591 949L315 0H19ZM453 1600Q392 1600 345 1648T298 1769Q298 1843 345 1889T453 1936Q516 1936 562 1890T609
1769Q609 1696 562 1648T453 1600ZM902 1600Q840 1600 794 1648T747 1769Q747 1843 793 1889T902 1936Q964 1936 1010 1890T1057 1769Q1057 1696 1010 1648T902 1600Z" />
<glyph unicode="&#xc5;" horiz-adv-x="1355" d="M19 0L476 1454H880L1337 0H1040L908 455L1065 340H347L391 567H999L907 458L763 949L683 1260H670L591 949L315 0H19ZM678 1427Q567 1427 506 1490T444 1648Q444 1743 505 1805T678 1867Q787 1867 848 1805T910
1648Q910 1553 849 1490T678 1427ZM678 1548Q712 1548 737 1573T763 1648Q763 1700 738 1723T678 1747Q643 1747 618 1724T593 1648Q593 1598 618 1573T678 1548Z" />
<glyph unicode="&#xc6;" horiz-adv-x="1890" d="M-64 0L706 1454H934L1005 1427H947L827 1141L244 0H-64ZM276 363L375 597H953V363H276ZM897 0V1454H1800V1198H1076L1174 1288V810L1076 875H1743V621H1100L1174 690V167L1076 258H1815V0H897Z" />
<glyph unicode="&#xc7;" horiz-adv-x="1369" d="M750 -21Q551 -21 404 67T175 323T93 732Q93 963 172 1131T400 1390T755 1481Q904 1481 1028 1424T1227 1254T1305 974H1019Q1016 1063 977 1117T875 1195T737 1219Q634 1219 554 1165T426 1002T379 728Q379 553
427 446T557 290T741 241Q837 241 898 269T989 348T1021 462H1307Q1304 313 1234 205T1039 38T750 -21ZM801 -432Q754 -432 708 -423T615 -393L616 -227Q670 -253 723 -253Q762 -253 782 -234T803 -178Q803 -131 759 -86T619 0H843Q939 -32 983 -90T1028 -222Q1028
-318 966 -375T801 -432Z" />
<glyph unicode="&#xc8;" horiz-adv-x="1126" d="M149 0V1454H1037V1198H327L425 1288V810L327 875H975V621H351L425 690V167L327 258H1051V0H149ZM487 1618L249 1916H541L732 1618H487Z" />
<glyph unicode="&#xc9;" horiz-adv-x="1126" d="M149 0V1454H1037V1198H327L425 1288V810L327 875H975V621H351L425 690V167L327 258H1051V0H149ZM477 1618L667 1916H960L722 1618H477Z" />
<glyph unicode="&#xca;" horiz-adv-x="1126" d="M149 0V1454H1037V1198H327L425 1288V810L327 875H975V621H351L425 690V167L327 258H1051V0H149ZM261 1618L486 1917H706L931 1618H723L596 1748L469 1618H261Z" />
<glyph unicode="&#xcb;" horiz-adv-x="1126" d="M149 0V1454H1037V1198H327L425 1288V810L327 875H975V621H351L425 690V167L327 258H1051V0H149ZM372 1600Q311 1600 264 1648T217 1769Q217 1843 264 1889T372 1936Q435 1936 481 1890T528 1769Q528 1696 481 1648T372
1600ZM821 1600Q759 1600 713 1648T666 1769Q666 1843 712 1889T821 1936Q883 1936 929 1890T976 1769Q976 1696 929 1648T821 1600Z" />
<glyph unicode="&#xcc;" horiz-adv-x="567" d="M142 0V1454H426V0H142ZM174 1618L-64 1916H228L419 1618H174Z" />
<glyph unicode="&#xcd;" horiz-adv-x="567" d="M142 0V1454H426V0H142ZM164 1618L354 1916H647L409 1618H164Z" />
<glyph unicode="&#xce;" horiz-adv-x="567" d="M142 0V1454H426V0H142ZM-52 1618L173 1917H393L618 1618H410L283 1748L156 1618H-52Z" />
<glyph unicode="&#xcf;" horiz-adv-x="567" d="M142 0V1454H426V0H142ZM59 1600Q-2 1600 -49 1648T-96 1769Q-96 1843 -49 1889T59 1936Q122 1936 168 1890T215 1769Q215 1696 168 1648T59 1600ZM508 1600Q446 1600 400 1648T353 1769Q353 1843 399 1889T508 1936Q570
1936 616 1890T663 1769Q663 1696 616 1648T508 1600Z" />
<glyph unicode="&#xd0;" horiz-adv-x="1355" d="M375 0V261H570Q709 261 807 309T958 463T1010 738Q1010 910 959 1011T809 1155T569 1199H367V1454H598Q815 1454 972 1375T1215 1138T1301 741Q1301 503 1212 338T966 87T604 0H375ZM149 0V1454H430V0H149ZM321
610V848H931L928 610H321Z" />
<glyph unicode="&#xd1;" horiz-adv-x="1453" d="M149 0V1454H489L941 583L1062 278H1070L1030 628V1454H1304V0H962L513 868L397 1154H387L423 766V0H149ZM858 1593Q792 1593 754 1616T693 1669T650 1721T599 1744Q559 1744 539 1713T518 1611H342Q339 1725 371
1795T460 1898T583 1931Q647 1931 684 1909T744 1857T787 1804T837 1781Q877 1781 898 1811T921 1913H1096Q1101 1760 1036 1677T858 1593Z" />
<glyph unicode="&#xd2;" horiz-adv-x="1471" d="M734 -30Q554 -30 407 58T173 317T86 736Q86 976 169 1143T399 1396T735 1483Q921 1483 1067 1397T1299 1143T1385 736Q1385 488 1300 317T1069 58T734 -30ZM734 227Q840 227 922 281T1051 448T1099 733Q1099 898
1052 1007T923 1171T735 1226Q635 1226 553 1172T421 1008T372 733Q372 603 400 508T478 350T593 257T734 227ZM626 1618L388 1916H680L871 1618H626Z" />
<glyph unicode="&#xd3;" horiz-adv-x="1471" d="M734 -30Q554 -30 407 58T173 317T86 736Q86 976 169 1143T399 1396T735 1483Q921 1483 1067 1397T1299 1143T1385 736Q1385 488 1300 317T1069 58T734 -30ZM734 227Q840 227 922 281T1051 448T1099 733Q1099 898
1052 1007T923 1171T735 1226Q635 1226 553 1172T421 1008T372 733Q372 603 400 508T478 350T593 257T734 227ZM606 1622L796 1921H1089L851 1622H606Z" />
<glyph unicode="&#xd4;" horiz-adv-x="1471" d="M734 -30Q554 -30 407 58T173 317T86 736Q86 976 169 1143T399 1396T735 1483Q921 1483 1067 1397T1299 1143T1385 736Q1385 488 1300 317T1069 58T734 -30ZM734 227Q840 227 922 281T1051 448T1099 733Q1099 898
1052 1007T923 1171T735 1226Q635 1226 553 1172T421 1008T372 733Q372 603 400 508T478 350T593 257T734 227ZM401 1622L611 1922H860L1071 1622H864L736 1745L608 1622H401Z" />
<glyph unicode="&#xd5;" horiz-adv-x="1471" d="M734 -30Q554 -30 407 58T173 317T86 736Q86 976 169 1143T399 1396T735 1483Q921 1483 1067 1397T1299 1143T1385 736Q1385 488 1300 317T1069 58T734 -30ZM734 227Q840 227 922 281T1051 448T1099 733Q1099 898
1052 1007T923 1171T735 1226Q635 1226 553 1172T421 1008T372 733Q372 603 400 508T478 350T593 257T734 227ZM872 1593Q806 1593 768 1616T707 1669T664 1721T613 1744Q573 1744 553 1713T532 1611H356Q353 1725 385 1795T474 1898T597 1931Q661 1931 698 1909T758
1857T801 1804T851 1781Q891 1781 912 1811T935 1913H1110Q1115 1760 1050 1677T872 1593Z" />
<glyph unicode="&#xd6;" horiz-adv-x="1471" d="M734 -30Q554 -30 407 58T173 317T86 736Q86 976 169 1143T399 1396T735 1483Q921 1483 1067 1397T1299 1143T1385 736Q1385 488 1300 317T1069 58T734 -30ZM734 227Q840 227 922 281T1051 448T1099 733Q1099 898
1052 1007T923 1171T735 1226Q635 1226 553 1172T421 1008T372 733Q372 603 400 508T478 350T593 257T734 227ZM511 1600Q450 1600 403 1648T356 1769Q356 1843 403 1889T511 1936Q574 1936 620 1890T667 1769Q667 1696 620 1648T511 1600ZM960 1600Q898 1600 852
1648T805 1769Q805 1843 851 1889T960 1936Q1022 1936 1068 1890T1115 1769Q1115 1696 1068 1648T960 1600Z" />
<glyph unicode="&#xd7;" horiz-adv-x="1022" d="M717 309L872 464L310 1026L155 871L717 309ZM306 309L868 871L712 1026L150 464L306 309Z" />
<glyph unicode="&#xd8;" horiz-adv-x="1471" d="M734 -30Q554 -30 407 58T173 317T86 736Q86 976 169 1143T399 1396T735 1483Q921 1483 1067 1397T1299 1143T1385 736Q1385 488 1300 317T1069 58T734 -30ZM734 227Q840 227 922 281T1051 448T1099 733Q1099 898
1052 1007T923 1171T735 1226Q635 1226 553 1172T421 1008T372 733Q372 603 400 508T478 350T593 257T734 227ZM219 -83L344 159L385 201L939 1308L943 1352L1038 1534H1262L1148 1315L1105 1268L541 140L539 100L444 -83H219Z" />
<glyph unicode="&#xd9;" horiz-adv-x="1355" d="M681 -20Q514 -20 389 46T196 243T127 561V1456H411V582Q411 489 429 423T482 314T568 253T682 233Q743 233 791 252T874 314T926 422T945 582V1454H1229V561Q1229 375 1160 245T968 48T681 -20ZM568 1618L330 1916H622L813
1618H568Z" />
<glyph unicode="&#xda;" horiz-adv-x="1355" d="M681 -20Q514 -20 389 46T196 243T127 561V1456H411V582Q411 489 429 423T482 314T568 253T682 233Q743 233 791 252T874 314T926 422T945 582V1454H1229V561Q1229 375 1160 245T968 48T681 -20ZM558 1618L748 1916H1041L803
1618H558Z" />
<glyph unicode="&#xdb;" horiz-adv-x="1355" d="M681 -20Q514 -20 389 46T196 243T127 561V1456H411V582Q411 489 429 423T482 314T568 253T682 233Q743 233 791 252T874 314T926 422T945 582V1454H1229V561Q1229 375 1160 245T968 48T681 -20ZM342 1618L567 1917H787L1012
1618H804L677 1748L550 1618H342Z" />
<glyph unicode="&#xdc;" horiz-adv-x="1355" d="M681 -20Q514 -20 389 46T196 243T127 561V1456H411V582Q411 489 429 423T482 314T568 253T682 233Q743 233 791 252T874 314T926 422T945 582V1454H1229V561Q1229 375 1160 245T968 48T681 -20ZM453 1600Q392 1600
345 1648T298 1769Q298 1843 345 1889T453 1936Q516 1936 562 1890T609 1769Q609 1696 562 1648T453 1600ZM902 1600Q840 1600 794 1648T747 1769Q747 1843 793 1889T902 1936Q964 1936 1010 1890T1057 1769Q1057 1696 1010 1648T902 1600Z" />
<glyph unicode="&#xdd;" horiz-adv-x="1291" d="M508 459L9 1454H330L509 1041L637 747H652L782 1040L961 1454H1282L784 459H508ZM504 0V623H787V0H504ZM526 1618L716 1916H1009L771 1618H526Z" />
<glyph unicode="&#xde;" horiz-adv-x="1224" d="M528 254Q473 254 447 280T414 356L358 443L428 500H634Q773 500 835 559T898 740Q898 869 831 917T624 965H422L336 1214Q379 1214 440 1214T561 1214T659 1214Q919 1214 1051 1104T1184 752Q1184 656 1157 567T1070
407T910 295T667 254H528ZM149 0V1454H428V0H149Z" />
<glyph unicode="&#xdf;" horiz-adv-x="1198" d="M124 0V1061Q124 1247 185 1363T356 1534T608 1589Q750 1589 848 1541T997 1407T1048 1212Q1048 1141 1023 1075T941 959T786 882Q890 869 959 832T1070 740T1129 622T1147 492Q1147 350 1088 237T913 57T629 -9Q599
-9 567 -8T499 -3V230Q516 223 545 220T605 217Q742 217 800 289T859 487Q859 583 824 639T726 720T581 745H516V953H573Q682 953 733 1013T785 1178Q785 1244 765 1287T705 1350T603 1371Q530 1371 485 1341T418 1245T397 1075V0H124Z" />
<glyph unicode="&#xe0;" horiz-adv-x="1123" d="M412 -12Q316 -12 240 24T120 128T76 289Q76 387 114 450T220 551T377 607Q439 620 505 628T630 642T724 650V687Q724 794 685 842T551 891Q490 891 449 875T386 817T365 696H107Q96 839 150 931T311 1067T562 1112Q647
1112 724 1094T862 1031T958 909T994 714V0H722L724 250Q706 140 632 64T412 -12ZM496 181Q547 181 595 199T679 251T724 327V512Q684 506 637 498T555 482Q449 460 407 422T364 314Q364 273 380 243T427 197T496 181ZM416 1259L177 1559H469L660 1259H416Z" />
<glyph unicode="&#xe1;" horiz-adv-x="1123" d="M412 -12Q316 -12 240 24T120 128T76 289Q76 387 114 450T220 551T377 607Q439 620 505 628T630 642T724 650V687Q724 794 685 842T551 891Q490 891 449 875T386 817T365 696H107Q96 839 150 931T311 1067T562 1112Q647
1112 724 1094T862 1031T958 909T994 714V0H722L724 250Q706 140 632 64T412 -12ZM496 181Q547 181 595 199T679 251T724 327V512Q684 506 637 498T555 482Q449 460 407 422T364 314Q364 273 380 243T427 197T496 181ZM426 1259L616 1558H909L671 1259H426Z" />
<glyph unicode="&#xe2;" horiz-adv-x="1123" d="M412 -12Q316 -12 240 24T120 128T76 289Q76 387 114 450T220 551T377 607Q439 620 505 628T630 642T724 650V687Q724 794 685 842T551 891Q490 891 449 875T386 817T365 696H107Q96 839 150 931T311 1067T562 1112Q647
1112 724 1094T862 1031T958 909T994 714V0H722L724 250Q706 140 632 64T412 -12ZM496 181Q547 181 595 199T679 251T724 327V512Q684 506 637 498T555 482Q449 460 407 422T364 314Q364 273 380 243T427 197T496 181ZM221 1259L431 1559H680L891 1259H684L556
1382L428 1259H221Z" />
<glyph unicode="&#xe3;" horiz-adv-x="1123" d="M412 -12Q316 -12 240 24T120 128T76 289Q76 387 114 450T220 551T377 607Q439 620 505 628T630 642T724 650V687Q724 794 685 842T551 891Q490 891 449 875T386 817T365 696H107Q96 839 150 931T311 1067T562 1112Q647
1112 724 1094T862 1031T958 909T994 714V0H722L724 250Q706 140 632 64T412 -12ZM496 181Q547 181 595 199T679 251T724 327V512Q684 506 637 498T555 482Q449 460 407 422T364 314Q364 273 380 243T427 197T496 181ZM690 1235Q627 1235 591 1258T532 1310T491
1362T442 1385Q405 1385 385 1358T364 1259H195Q192 1373 223 1442T308 1542T426 1573Q488 1573 524 1551T581 1498T622 1445T671 1422Q708 1422 729 1449T751 1548H919Q925 1396 862 1316T690 1235Z" />
<glyph unicode="&#xe4;" horiz-adv-x="1123" d="M412 -12Q316 -12 240 24T120 128T76 289Q76 387 114 450T220 551T377 607Q439 620 505 628T630 642T724 650V687Q724 794 685 842T551 891Q490 891 449 875T386 817T365 696H107Q96 839 150 931T311 1067T562 1112Q647
1112 724 1094T862 1031T958 909T994 714V0H722L724 250Q706 140 632 64T412 -12ZM496 181Q547 181 595 199T679 251T724 327V512Q684 506 637 498T555 482Q449 460 407 422T364 314Q364 273 380 243T427 197T496 181ZM346 1236Q284 1236 237 1284T189 1406Q189
1480 236 1527T346 1575Q408 1575 455 1528T503 1406Q503 1332 456 1284T346 1236ZM765 1236Q703 1236 656 1284T608 1406Q608 1480 655 1527T765 1575Q828 1575 875 1528T922 1406Q922 1332 875 1284T765 1236Z" />
<glyph unicode="&#xe5;" horiz-adv-x="1123" d="M412 -12Q316 -12 240 24T120 128T76 289Q76 387 114 450T220 551T377 607Q439 620 505 628T630 642T724 650V687Q724 794 685 842T551 891Q490 891 449 875T386 817T365 696H107Q96 839 150 931T311 1067T562 1112Q647
1112 724 1094T862 1031T958 909T994 714V0H722L724 250Q706 140 632 64T412 -12ZM496 181Q547 181 595 199T679 251T724 327V512Q684 506 637 498T555 482Q449 460 407 422T364 314Q364 273 380 243T427 197T496 181ZM557 1235Q450 1235 391 1294T331 1448Q331
1542 390 1601T557 1660Q662 1660 722 1601T782 1448Q782 1354 722 1295T557 1235ZM557 1357Q591 1357 615 1380T639 1448Q639 1492 615 1515T557 1538Q523 1538 499 1515T475 1448Q475 1404 499 1381T557 1357Z" />
<glyph unicode="&#xe6;" horiz-adv-x="1752" d="M434 -14Q323 -14 243 22T119 127T76 298Q76 423 147 496T376 606Q439 621 505 629T629 642T723 650V687Q723 797 683 844T541 891Q486 891 446 876T386 820T365 705H107Q94 833 145 923T297 1063T530 1112Q649
1112 745 1070T883 922Q939 1026 1039 1069T1246 1113Q1382 1113 1483 1053T1641 878T1697 603Q1697 576 1696 550T1692 499H978Q986 345 1049 274T1217 203Q1304 203 1353 243T1409 337H1674Q1667 235 1609 156T1456 31T1243 -14Q1149 -14 1061 17T903 111T796
269Q767 140 681 63T434 -14ZM500 181Q547 181 594 199T678 251T723 327V512Q679 506 633 498T554 482Q445 458 405 421T364 318Q364 273 381 243T428 197T500 181ZM978 578Q985 627 1014 647T1101 667H1425Q1422 775 1372 832T1218 890Q1097 890 1041 810T978
578Z" />
<glyph unicode="&#xe7;" horiz-adv-x="1086" d="M591 -19Q424 -19 308 52T133 252T73 550Q73 726 134 852T310 1045T579 1112Q732 1112 834 1058T985 911T1029 702H764Q762 747 750 782T715 840T658 876T579 888Q458 889 404 803T349 555Q349 375 412 293T601
207Q639 206 678 223T744 278T768 371H1032Q1035 253 979 165T823 29T591 -19ZM576 -412Q527 -412 485 -402T402 -375L403 -219Q455 -245 505 -245Q551 -245 569 -225T588 -162Q588 -116 564 -78T477 0H559Q694 -35 749 -91T805 -220Q805 -309 741 -360T576 -412Z"
/>
<glyph unicode="&#xe8;" horiz-adv-x="1115" d="M583 -15Q421 -15 305 50T127 241T65 547Q65 729 130 855T313 1047T587 1113Q739 1113 844 1055T1005 882T1060 601Q1060 574 1059 550T1055 493H337Q347 343 410 273T576 203Q666 203 713 242T772 337H1037Q1028
228 970 149T813 27T583 -15ZM455 662H791Q787 774 737 832T576 890Q455 890 398 807T335 572Q343 624 372 643T455 662ZM450 1259L211 1559H503L694 1259H450Z" />
<glyph unicode="&#xe9;" horiz-adv-x="1115" d="M583 -15Q421 -15 305 50T127 241T65 547Q65 729 130 855T313 1047T587 1113Q739 1113 844 1055T1005 882T1060 601Q1060 574 1059 550T1055 493H337Q347 343 410 273T576 203Q666 203 713 242T772 337H1037Q1028
228 970 149T813 27T583 -15ZM455 662H791Q787 774 737 832T576 890Q455 890 398 807T335 572Q343 624 372 643T455 662ZM460 1259L650 1558H943L705 1259H460Z" />
<glyph unicode="&#xea;" horiz-adv-x="1115" d="M583 -15Q421 -15 305 50T127 241T65 547Q65 729 130 855T313 1047T587 1113Q739 1113 844 1055T1005 882T1060 601Q1060 574 1059 550T1055 493H337Q347 343 410 273T576 203Q666 203 713 242T772 337H1037Q1028
228 970 149T813 27T583 -15ZM455 662H791Q787 774 737 832T576 890Q455 890 398 807T335 572Q343 624 372 643T455 662ZM255 1259L465 1559H714L925 1259H718L590 1382L462 1259H255Z" />
<glyph unicode="&#xeb;" horiz-adv-x="1115" d="M583 -15Q421 -15 305 50T127 241T65 547Q65 729 130 855T313 1047T587 1113Q739 1113 844 1055T1005 882T1060 601Q1060 574 1059 550T1055 493H337Q347 343 410 273T576 203Q666 203 713 242T772 337H1037Q1028
228 970 149T813 27T583 -15ZM455 662H791Q787 774 737 832T576 890Q455 890 398 807T335 572Q343 624 372 643T455 662ZM380 1236Q318 1236 271 1284T223 1406Q223 1480 270 1527T380 1575Q442 1575 489 1528T537 1406Q537 1332 490 1284T380 1236ZM799 1236Q737
1236 690 1284T642 1406Q642 1480 689 1527T799 1575Q862 1575 909 1528T956 1406Q956 1332 909 1284T799 1236Z" />
<glyph unicode="&#xec;" horiz-adv-x="546" d="M135 0V1091H411L407 0H135ZM134 1259L-105 1559H187L378 1259H134Z" />
<glyph unicode="&#xed;" horiz-adv-x="546" d="M135 0V1091H411L407 0H135ZM399 1259L589 1558H882L644 1259H399Z" />
<glyph unicode="&#xee;" horiz-adv-x="546" d="M135 0V1091H411L407 0H135ZM-62 1259L148 1559H397L608 1259H401L273 1382L145 1259H-62Z" />
<glyph unicode="&#xef;" horiz-adv-x="546" d="M135 0V1091H411L407 0H135ZM64 1236Q2 1236 -45 1284T-93 1406Q-93 1480 -46 1527T64 1575Q126 1575 173 1528T221 1406Q221 1332 174 1284T64 1236ZM483 1236Q421 1236 374 1284T326 1406Q326 1480 373 1527T483
1575Q546 1575 593 1528T640 1406Q640 1332 593 1284T483 1236Z" />
<glyph unicode="&#xf0;" horiz-adv-x="1130" d="M568 -7Q421 -7 309 59T135 242T73 511Q73 663 131 769T283 932T484 988Q565 988 617 959T700 885T747 789T773 695L757 702Q770 774 744 872T661 1078T528 1291T363 1485T185 1629L131 1551L607 1586Q687 1508
765 1403T907 1171T1011 897T1050 587Q1050 429 1013 316T909 132T755 27T568 -7ZM569 224Q635 224 680 256T750 355T775 526Q775 560 772 593T765 653T753 688Q733 713 707 731T646 760T568 771Q471 771 413 711T355 506Q355 369 410 297T569 224ZM385 1092L349
1312L573 1408L618 1427L919 1574L946 1358L736 1276L687 1259L385 1092Z" />
<glyph unicode="&#xf1;" horiz-adv-x="1194" d="M141 0V1092H384L410 680L396 763Q408 853 443 933T548 1064T735 1114Q887 1114 975 1018T1063 723V0H787V623Q787 722 769 777T714 856T621 879Q553 879 499 837T418 740V0H141ZM733 1235Q670 1235 634 1258T575
1310T534 1362T485 1385Q448 1385 428 1358T407 1259H238Q235 1373 266 1442T351 1542T469 1573Q531 1573 567 1551T624 1498T665 1445T714 1422Q751 1422 772 1449T794 1548H962Q968 1396 905 1316T733 1235Z" />
<glyph unicode="&#xf2;" horiz-adv-x="1172" d="M584 -15Q429 -15 314 50T136 241T73 552Q73 726 139 852T323 1045T588 1113Q748 1113 862 1046T1038 852T1099 552Q1099 368 1031 242T847 50T584 -15ZM588 216Q690 216 756 292T823 552Q823 723 756 802T584 882Q482
882 416 803T350 552Q350 376 418 296T588 216ZM447 1259L208 1559H500L691 1259H447Z" />
<glyph unicode="&#xf3;" horiz-adv-x="1172" d="M584 -15Q429 -15 314 50T136 241T73 552Q73 726 139 852T323 1045T588 1113Q748 1113 862 1046T1038 852T1099 552Q1099 368 1031 242T847 50T584 -15ZM588 216Q690 216 756 292T823 552Q823 723 756 802T584 882Q482
882 416 803T350 552Q350 376 418 296T588 216ZM457 1259L647 1558H940L702 1259H457Z" />
<glyph unicode="&#xf4;" horiz-adv-x="1172" d="M584 -15Q429 -15 314 50T136 241T73 552Q73 726 139 852T323 1045T588 1113Q748 1113 862 1046T1038 852T1099 552Q1099 368 1031 242T847 50T584 -15ZM588 216Q690 216 756 292T823 552Q823 723 756 802T584 882Q482
882 416 803T350 552Q350 376 418 296T588 216ZM252 1259L462 1559H711L922 1259H715L587 1382L459 1259H252Z" />
<glyph unicode="&#xf5;" horiz-adv-x="1172" d="M584 -15Q429 -15 314 50T136 241T73 552Q73 726 139 852T323 1045T588 1113Q748 1113 862 1046T1038 852T1099 552Q1099 368 1031 242T847 50T584 -15ZM588 216Q690 216 756 292T823 552Q823 723 756 802T584 882Q482
882 416 803T350 552Q350 376 418 296T588 216ZM720 1235Q657 1235 621 1258T562 1310T521 1362T472 1385Q435 1385 415 1358T394 1259H225Q222 1373 253 1442T338 1542T456 1573Q518 1573 554 1551T611 1498T652 1445T701 1422Q738 1422 759 1449T781 1548H949Q955
1396 892 1316T720 1235Z" />
<glyph unicode="&#xf6;" horiz-adv-x="1172" d="M584 -15Q429 -15 314 50T136 241T73 552Q73 726 139 852T323 1045T588 1113Q748 1113 862 1046T1038 852T1099 552Q1099 368 1031 242T847 50T584 -15ZM588 216Q690 216 756 292T823 552Q823 723 756 802T584 882Q482
882 416 803T350 552Q350 376 418 296T588 216ZM377 1236Q315 1236 268 1284T220 1406Q220 1480 267 1527T377 1575Q439 1575 486 1528T534 1406Q534 1332 487 1284T377 1236ZM796 1236Q734 1236 687 1284T639 1406Q639 1480 686 1527T796 1575Q859 1575 906 1528T953
1406Q953 1332 906 1284T796 1236Z" />
<glyph unicode="&#xf7;" horiz-adv-x="1096" d="M150 557V776H946V557H150ZM548 861Q486 861 442 905T398 1018Q398 1087 442 1130T548 1174Q611 1174 655 1131T699 1018Q699 949 655 905T548 861ZM549 158Q486 158 442 202T398 316Q398 384 442 428T549 472Q611
472 655 428T699 316Q699 247 655 203T549 158Z" />
<glyph unicode="&#xf8;" horiz-adv-x="1172" d="M584 -15Q429 -15 314 50T136 241T73 552Q73 726 139 852T323 1045T588 1113Q748 1113 862 1046T1038 852T1099 552Q1099 368 1031 242T847 50T584 -15ZM588 216Q690 216 756 292T823 552Q823 723 756 802T584 882Q482
882 416 803T350 552Q350 376 418 296T588 216ZM137 -44L281 184L323 218L759 931L767 966L871 1134H1037L914 937L870 899L424 169L418 138L303 -44H137Z" />
<glyph unicode="&#xf9;" horiz-adv-x="1183" d="M444 -22Q299 -22 215 76T131 368V1092H408V453Q408 362 425 310T476 235T562 213Q630 213 685 255T766 352V1092H1042V0H801L774 412L788 329Q776 239 741 159T634 29T444 -22ZM457 1259L218 1559H510L701 1259H457Z" />
<glyph unicode="&#xfa;" horiz-adv-x="1183" d="M444 -22Q299 -22 215 76T131 368V1092H408V453Q408 362 425 310T476 235T562 213Q630 213 685 255T766 352V1092H1042V0H801L774 412L788 329Q776 239 741 159T634 29T444 -22ZM466 1259L656 1558H949L711 1259H466Z" />
<glyph unicode="&#xfb;" horiz-adv-x="1183" d="M444 -22Q299 -22 215 76T131 368V1092H408V453Q408 362 425 310T476 235T562 213Q630 213 685 255T766 352V1092H1042V0H801L774 412L788 329Q776 239 741 159T634 29T444 -22ZM262 1259L472 1559H721L932 1259H725L597
1382L469 1259H262Z" />
<glyph unicode="&#xfc;" horiz-adv-x="1183" d="M444 -22Q299 -22 215 76T131 368V1092H408V453Q408 362 425 310T476 235T562 213Q630 213 685 255T766 352V1092H1042V0H801L774 412L788 329Q776 239 741 159T634 29T444 -22ZM387 1236Q325 1236 278 1284T230
1406Q230 1480 277 1527T387 1575Q449 1575 496 1528T544 1406Q544 1332 497 1284T387 1236ZM806 1236Q744 1236 697 1284T649 1406Q649 1480 696 1527T806 1575Q869 1575 916 1528T963 1406Q963 1332 916 1284T806 1236Z" />
<glyph unicode="&#xfd;" horiz-adv-x="1069" d="M134 -431V-187H237Q309 -187 348 -175T406 -140T435 -83Q447 -45 459 -27T491 0H390L30 1091H332L468 548L541 266H550L618 547L750 1091H1050L701 0Q669 -100 631 -180T540 -316T413 -401T237 -431H134ZM404 1259L594
1558H887L649 1259H404Z" />
<glyph unicode="&#xfe;" horiz-adv-x="1203" d="M698 -13Q604 -13 542 19T447 98T403 193L301 191L416 318Q424 286 448 261T514 221T613 206Q718 206 781 287T844 550Q844 713 784 797T621 881Q560 881 516 864T447 824T416 778V856Q424 903 444 948T499 1031T588
1090T718 1112Q847 1112 937 1042T1075 848T1123 559Q1123 419 1090 313T999 134T863 24T698 -13ZM141 -403V1560H416V965V275L403 193L416 -1V-403H141Z" />
<glyph unicode="&#xff;" horiz-adv-x="1069" d="M134 -431V-187H237Q309 -187 348 -175T406 -140T435 -83Q447 -45 459 -27T491 0H390L30 1091H332L468 548L541 266H550L618 547L750 1091H1050L701 0Q669 -100 631 -180T540 -316T413 -401T237 -431H134ZM324 1236Q262
1236 215 1284T167 1406Q167 1480 214 1527T324 1575Q386 1575 433 1528T481 1406Q481 1332 434 1284T324 1236ZM743 1236Q681 1236 634 1284T586 1406Q586 1480 633 1527T743 1575Q806 1575 853 1528T900 1406Q900 1332 853 1284T743 1236Z" />
<glyph unicode="&#x2013;" horiz-adv-x="1162" d="M150 554V768H1012L1009 554H150Z" />
<glyph unicode="&#x2014;" horiz-adv-x="1878" d="M150 561V761H1728L1725 561H150Z" />
<glyph unicode="&#x2018;" horiz-adv-x="604" d="M119 701V1089Q119 1168 134 1247T187 1392T287 1498T446 1538H487V1364H452Q373 1362 346 1300T313 1113L312 1023H413V701H119Z" />
<glyph unicode="&#x2019;" horiz-adv-x="609" d="M117 700V875H153Q236 877 264 939T296 1126L297 1225H194V1538H490V1149Q490 1071 475 992T422 846T321 740T158 700H117Z" />
<glyph unicode="&#x201a;" horiz-adv-x="609" d="M117 -538V-362H153Q236 -360 264 -298T296 -112L297 -12H194V301H490V-88Q490 -166 475 -245T422 -391T321 -497T158 -538H117Z" />
<glyph unicode="&#x201c;" horiz-adv-x="1103" d="M119 687V1076Q119 1154 134 1233T187 1379T287 1485T446 1525H487V1350H452Q373 1348 346 1286T313 1099L312 1010H413V687H119ZM618 687V1076Q618 1154 633 1233T686 1379T786 1485T945 1525H986V1350H951Q871
1348 844 1286T811 1099V1010H912V687H618Z" />
<glyph unicode="&#x201d;" horiz-adv-x="1098" d="M117 686V861H153Q236 863 264 926T296 1112L297 1212H194V1525H490V1136Q490 1057 475 978T422 833T321 726T158 686H117ZM605 686V861H641Q725 863 753 926T785 1112L786 1212H683V1525H979V1136Q979 1057 964
978T911 833T810 726T647 686H605Z" />
<glyph unicode="&#x201e;" horiz-adv-x="1098" d="M117 -538V-362H153Q236 -360 264 -298T296 -112L297 -12H194V301H490V-88Q490 -166 475 -245T422 -391T321 -497T158 -538H117ZM605 -538V-362H641Q725 -360 753 -298T785 -112L786 -12H683V301H979V-88Q979
-166 964 -245T911 -391T810 -497T647 -538H605Z" />
<glyph unicode="&#x2022;" horiz-adv-x="818" d="M409 379Q297 379 224 456T150 651Q150 768 224 845T410 922Q521 922 594 845T668 651Q668 533 595 456T409 379Z" />
<glyph unicode="&#x2039;" horiz-adv-x="797" d="M383 248L150 549V557L383 858H647L464 637Q436 603 413 584T331 553Q390 542 413 523T464 469L647 248H383Z" />
<glyph unicode="&#x203a;" horiz-adv-x="797" d="M150 248L334 469Q361 503 382 522T461 553Q405 564 384 583T334 637L150 858H414L647 557V549L414 248H150Z" />
</font>
</defs>
</svg>
